dummy_motion.mot
nRows=19
nColumns=17

name dummy_motion.mot
datacolumns 17
datarows 19
range 37.5100000000 37.6900000000
endheader
time	first_body_list	first_body_rotation	first_body_tilt	first_body_tx	first_body_ty	first_body_tz	subtalar_angle_l	ankle_angle_l	knee_angle_l	hip_flexion_l	hip_adduction_l	hip_rotation_l	lumbar_extension	lumbar_bending	lumbar_rotation	mtp_angle_l
       37.5100000000	        0.0000000000	        0.0000000000	        0.0000000000	        0.0000000000	        0.0000000000	        0.0000000000	        0.0000000000	       44.3853505225	      -42.7316886967	      103.9003549369	       34.7212712852	       10.7135038972	      -45.1834515109	        7.5932775663	       30.1792085979	        0.0000000000	
       37.5200000000	        0.0000000000	        0.0000000000	        0.0000000000	        0.0000000000	        0.0000000000	        0.0000000000	        0.0000000000	       55.0467557658	      -46.9356765308	      -40.1447547987	       23.7179583664	        7.0048266800	       92.0217863429	       -7.8573991864	       22.1643525245	        0.0000000000	
       37.5300000000	        0.0000000000	        0.0000000000	        0.0000000000	        0.0000000000	        0.0000000000	        0.0000000000	        0.0000000000	       43.3234374905	      -72.5576105255	      -45.1303851520	       26.1665289336	       -7.3540762619	      116.8812635047	        7.2659553509	      -35.2934800324	        0.0000000000	
       37.5400000000	        0.0000000000	        0.0000000000	        0.0000000000	        0.0000000000	        0.0000000000	        0.0000000000	        0.0000000000	       12.8606969340	      -26.2483725721	        4.2438804567	      -37.0440963850	       -3.2856000963	       16.0224912099	      -21.0121464736	      -33.8343241099	        0.0000000000	
       37.5500000000	        0.0000000000	        0.0000000000	        0.0000000000	        0.0000000000	        0.0000000000	        0.0000000000	        0.0000000000	      -52.1319483228	      -80.5614410306	       42.0715892623	       23.3641728628	        2.7687806759	       -0.1701981781	       -4.1634762291	      -21.2056415145	        0.0000000000	
       37.5600000000	        0.0000000000	        0.0000000000	        0.0000000000	        0.0000000000	        0.0000000000	        0.0000000000	        0.0000000000	      -11.3859504954	      -24.0523951113	       91.6978248874	       14.1475134601	      -39.1902182410	       49.1274888772	       35.3493670533	      -27.7578582399	        0.0000000000	
       37.5700000000	        0.0000000000	        0.0000000000	        0.0000000000	        0.0000000000	        0.0000000000	        0.0000000000	        0.0000000000	        4.7168410174	        1.4407833068	       20.5298518759	      -25.1716011569	      -13.4213557676	      -42.0653225809	      -33.4962194915	       37.3460211530	        0.0000000000	
       37.5800000000	        0.0000000000	        0.0000000000	        0.0000000000	        0.0000000000	        0.0000000000	        0.0000000000	        0.0000000000	      -43.2497890702	      -41.9140325344	       10.9894732391	      -11.6081261654	       33.3707787551	      -55.4653822970	        1.0221236157	       35.3334348621	        0.0000000000	
       37.5900000000	        0.0000000000	        0.0000000000	        0.0000000000	        0.0000000000	        0.0000000000	        0.0000000000	        0.0000000000	       48.9803762180	      -78.1806683376	       20.6306960889	       22.8886467691	      -39.3632208502	       88.5087324909	      -14.3335541006	       -4.6254526831	        0.0000000000	
       37.6000000000	        0.0000000000	        0.0000000000	        0.0000000000	        0.0000000000	        0.0000000000	        0.0000000000	        0.0000000000	       36.6689169719	      -86.6664017807	      -53.1190967550	      -23.5655804168	       31.4836496607	       35.7471010363	       18.8266766797	      -31.4218330141	        0.0000000000	
       37.6100000000	        0.0000000000	        0.0000000000	        0.0000000000	        0.0000000000	        0.0000000000	        0.0000000000	        0.0000000000	       -4.3855921585	      -63.6386616748	       64.7506302280	       11.7450709427	       -4.3010920381	       96.4877971698	        0.5853169934	      -34.2360240872	        0.0000000000	
       37.6200000000	        0.0000000000	        0.0000000000	        0.0000000000	        0.0000000000	        0.0000000000	        0.0000000000	        0.0000000000	        5.9084465943	      -83.6883997010	      102.6633895881	      -12.1797306093	       -1.4569470746	       95.7624917278	       19.3021355065	       -4.3592629095	        0.0000000000	
       37.6300000000	        0.0000000000	        0.0000000000	        0.0000000000	        0.0000000000	        0.0000000000	        0.0000000000	        0.0000000000	       24.3072403885	     -118.2331487092	      110.2008684089	      -24.1171973604	      -29.3504305602	      104.9448701800	       15.9686109698	       -3.7813272511	        0.0000000000	
       37.6400000000	        0.0000000000	        0.0000000000	        0.0000000000	        0.0000000000	        0.0000000000	        0.0000000000	        0.0000000000	       16.6428880307	      -69.0302061565	       25.7019610596	       32.4332456734	       -9.4256865675	      -20.8675188751	       -3.4011248365	       -0.9919648347	        0.0000000000	
       37.6500000000	        0.0000000000	        0.0000000000	        0.0000000000	        0.0000000000	        0.0000000000	        0.0000000000	        0.0000000000	        0.0623379851	       -9.2955118887	      119.9360820691	       20.5825975931	      -30.2553986828	       40.4793294727	      -38.9365809810	       15.6360659997	        0.0000000000	
       37.6600000000	        0.0000000000	        0.0000000000	        0.0000000000	        0.0000000000	        0.0000000000	        0.0000000000	        0.0000000000	       -3.9888289148	      -59.1695283734	      -69.2410871684	       33.9573506154	      -25.4382637000	      108.0929037528	      -28.1466780947	       25.4703542085	        0.0000000000	
       37.6700000000	        0.0000000000	        0.0000000000	        0.0000000000	        0.0000000000	        0.0000000000	        0.0000000000	        0.0000000000	      -46.5211266930	      -59.7467122741	      -58.7014051398	        9.0843700093	       37.8300015321	       61.4259746237	       26.9964962599	       -5.5572154824	        0.0000000000	
       37.6800000000	        0.0000000000	        0.0000000000	        0.0000000000	        0.0000000000	        0.0000000000	        0.0000000000	        0.0000000000	      -52.0625534972	      -76.6656842495	      119.9077400979	      -27.6709246752	       12.1962742964	       89.7087274660	       -5.1830568279	        5.4738903668	        0.0000000000	
       37.6900000000	        0.0000000000	        0.0000000000	        0.0000000000	        0.0000000000	        0.0000000000	        0.0000000000	        0.0000000000	       -4.7935352354	      -79.6468833736	      100.8806904696	       29.0895213409	      -35.4033548482	       21.9974626433	       17.6303733164	      -26.4326222561	        0.0000000000	
